<svg version="1.1" viewBox="0 0 512 512" xmlns="http://www.w3.org/2000/svg">
<path d="m85.434 411.77c5.5532-14.178 10.345-37.876 10.33-51.088-0.014445-12.776-3.9355-22.483-13.951-34.537-35.682-42.942-43.025-92.753-20.626-139.93 7.6556-16.124 17.091-29.162 31.727-43.84 33.581-33.678 78.603-54.006 134.25-60.613 10.418-1.2372 47.262-1.2372 57.68 0 55.565 6.5985 100.25 26.721 133.9 60.303 14.926 14.895 24.336 27.847 32.077 44.15 12.504 26.335 15.762 52.659 9.8197 79.343-2.4304 10.914-5.147 18.533-10.557 29.608-12.481 25.549-33.18 48.464-59.776 66.177-29.965 19.957-63.419 31.689-105.1 36.862-10.136 1.2576-47.647 1.2396-58.036-0.028-18.69-2.2803-36.843-6.3624-55.164-12.405-10.9-3.5948-11.191-3.6484-19.963-3.6687-13.417-0.0312-17.455 1.46-34.537 12.756-9.609 6.3544-24.108 14.625-29.804 17.003-2.5827 1.0777-2.7159 1.0721-2.2585-0.0956zm82.766-26.867c-15-5.4-31.7-3.1-44.6 6.4-8.2 6-22.3 14.8-39.4 22.7 5.6-14.7 9.9-31.3 11.3-49.4 1-12.9-3.3-25.7-11.8-35.5-23.3-26.3-35.7-57.1-35.7-89.1 0-79.5 83.3-160 208-160s208 80.5 208 160-83.3 160-208 160c-31.6 0-61.3-5.5-87.8-15.1zm-141.9 38.9c-1.6 2.7-3.3 5.4-5.1 8.1l-0.3 0.5-4.8 6.9c-3.5 4.7-7.3 9.3-11.3 13.5-4.6 4.6-5.9 11.4-3.4 17.4s8.3 9.9 14.8 9.9c5.1 0 10.2-0.3 15.3-0.8l0.7-0.1c4.4-0.5 8.8-1.1 13.2-1.9 0.8-0.1 1.6-0.3 2.4-0.5 17.8-3.5 34.9-9.5 50.1-16.1 22.9-10 42.4-21.9 54.3-30.6 31.8 11.5 67 17.9 104.1 17.9 141.4 0 256-93.1 256-208s-114.9-208-256.3-208-256 93.1-256 208c0 45.1 17.7 86.8 47.7 120.9-1.9 24.5-11.4 46.3-21.4 62.9z" fill="#585858" stroke="#585858" stroke-width=".76551"/>
</svg>
